<svg data-v-fde0c5aa="" xmlns="http://www.w3.org/2000/svg" viewBox="0 0 300 300" class="iconAbove"><!----><defs data-v-fde0c5aa=""><!----></defs><rect data-v-fde0c5aa="" fill="transparent" x="0" y="0" width="300px" height="300px" class="logo-background-square"></rect><defs data-v-fde0c5aa=""><!----></defs><g data-v-fde0c5aa="" id="2afa647b-f711-4543-a1ff-6f53a5aba0c8" fill="#2e3034" transform="matrix(2.1160577059682026,0,0,2.1160577059682026,19.06893461441904,173.6219590244581)"><path d="M3.17 3.82L3.17 3.82L3.17 7.26Q3.17 7.72 3.19 8.21Q3.21 8.70 3.22 9.00L3.22 9.00L3.26 9.75L4.34 9.75Q5.60 9.75 6.44 9.63Q7.28 9.52 7.42 9.45L7.42 9.45L7.91 8.51L8.41 8.70L7.97 10.64L2.30 10.64L0.44 10.68L0.44 10.20L1.31 10.04L1.42 8.20L1.42 3.82L1.31 1.98L0.44 1.83L0.44 1.35L2.30 1.38L4.31 1.35L4.31 1.83L3.30 1.98L3.22 2.78Q3.17 3.34 3.17 3.82ZM15.47 3.22L15.41 4.35L15.41 8.04L15.42 9.33Q15.42 9.48 15.43 9.58Q15.44 9.67 15.53 10.04L15.53 10.04L16.29 10.20L16.28 10.68L15.10 10.64L13.85 10.68L13.85 9.32Q13.33 10.08 12.67 10.46Q12.01 10.84 11.27 10.84L11.27 10.84Q10.34 10.84 9.72 10.22Q9.10 9.60 9.10 8.65L9.10 8.65L9.10 6.05Q9.10 5.52 9.06 5.00L9.06 5.00Q9.06 4.72 9.02 4.51Q8.98 4.30 8.97 4.23L8.97 4.23L8.09 4.06L8.09 3.57Q8.38 3.57 8.51 3.56Q8.65 3.55 9.19 3.44L9.19 3.44Q9.75 3.37 10.26 3.22L10.26 3.22L10.87 3.22L10.75 5.64L10.75 7.55Q10.75 8.59 11.06 9.12Q11.37 9.65 12.01 9.65L12.01 9.65Q12.86 9.65 13.31 8.91Q13.77 8.17 13.77 6.92L13.77 6.92L13.77 6.05Q13.77 5.81 13.76 5.55Q13.75 5.29 13.71 5.00L13.71 5.00L13.64 4.23L12.76 4.06L12.76 3.57Q13.01 3.57 13.22 3.54Q13.43 3.51 13.80 3.44L13.80 3.44Q14.31 3.37 14.85 3.22L14.85 3.22L15.47 3.22ZM24.28 3.85L23.58 4.00Q22.96 4.69 22.45 5.37L22.45 5.37L21.39 6.76L23.77 10.01L24.54 10.15L24.54 10.68L22.86 10.64L21.20 10.68L21.20 10.21L21.74 10.03L20.22 7.69L19.46 8.85L18.75 10.07L19.39 10.20L19.39 10.68L18.09 10.64L16.78 10.68L16.78 10.16L17.42 10.04L18.61 8.57L19.75 7.08L17.49 4.00L16.78 3.86L16.78 3.38L18.38 3.42L20.02 3.38L20.02 3.85L19.54 4.00L20.90 6.16L22.29 4.00L21.85 3.86L21.85 3.38L23.07 3.42L24.28 3.38L24.28 3.85ZM32.22 3.22L32.16 4.35L32.16 8.04L32.17 9.33Q32.17 9.48 32.18 9.58Q32.19 9.67 32.28 10.04L32.28 10.04L33.04 10.20L33.03 10.68L31.85 10.64L30.60 10.68L30.60 9.32Q30.09 10.08 29.42 10.46Q28.76 10.84 28.02 10.84L28.02 10.84Q27.09 10.84 26.47 10.22Q25.86 9.60 25.86 8.65L25.86 8.65L25.86 6.05Q25.86 5.52 25.81 5.00L25.81 5.00Q25.81 4.72 25.77 4.51Q25.74 4.30 25.72 4.23L25.72 4.23L24.84 4.06L24.84 3.57Q25.13 3.57 25.27 3.56Q25.40 3.55 25.94 3.44L25.94 3.44Q26.50 3.37 27.01 3.22L27.01 3.22L27.62 3.22L27.50 5.64L27.50 7.55Q27.50 8.59 27.81 9.12Q28.12 9.65 28.76 9.65L28.76 9.65Q29.61 9.65 30.07 8.91Q30.53 8.17 30.53 6.92L30.53 6.92L30.53 6.05Q30.53 5.81 30.51 5.55Q30.50 5.29 30.47 5.00L30.47 5.00L30.39 4.23L29.51 4.06L29.51 3.57Q29.76 3.57 29.97 3.54Q30.18 3.51 30.55 3.44L30.55 3.44Q31.06 3.37 31.60 3.22L31.60 3.22L32.22 3.22ZM36.20 7.08L36.20 7.94Q36.20 8.42 36.21 8.75Q36.22 9.08 36.28 9.54Q36.34 10.00 36.36 10.04L36.36 10.04L37.26 10.20L37.26 10.68L35.39 10.64L33.67 10.68L33.67 10.20L34.42 10.04L34.49 9.39Q34.52 9.09 34.54 8.70Q34.57 8.32 34.57 7.94L34.57 7.94L34.57 6.40L34.57 6.22L34.57 6.06Q34.57 5.81 34.55 5.55Q34.54 5.28 34.51 5.03L34.51 5.03L34.43 4.19L33.55 4.02L33.55 3.54Q33.84 3.54 34.08 3.50L34.08 3.50Q34.42 3.43 34.59 3.41L34.59 3.41Q34.93 3.35 35.13 3.31Q35.32 3.26 35.64 3.17L35.64 3.17L36.05 3.17L36.01 5.24Q36.34 4.24 37.04 3.72L37.04 3.72Q37.38 3.48 37.72 3.35Q38.06 3.22 38.41 3.22L38.41 3.22Q38.56 3.22 38.69 3.24Q38.83 3.26 38.99 3.31Q39.14 3.35 39.24 3.43L39.24 3.43L38.82 4.48L38.59 5.27Q38.12 5.16 38.10 5.05L38.10 5.05Q38.10 4.91 38.13 4.84L38.13 4.84Q38.13 4.55 38.04 4.52Q37.95 4.48 37.79 4.48L37.79 4.48Q37.15 4.48 36.67 5.23Q36.20 5.98 36.20 7.08L36.20 7.08ZM45.73 4.00L45.09 3.86L45.09 3.38L46.33 3.42L47.59 3.38L47.59 3.85L47.16 4.00Q46.42 5.71 45.75 7.49L45.75 7.49L44.48 10.99Q43.92 12.61 42.95 13.51Q41.99 14.42 40.67 14.42L40.67 14.42Q40.47 14.42 40.30 14.41Q40.12 14.39 39.97 14.36L39.97 14.36Q39.69 14.32 39.49 14.20L39.49 14.20L39.99 12.32L40.44 12.37L40.52 13.02L40.81 13.12L41.18 13.15Q41.99 13.15 42.67 12.41Q43.35 11.66 43.57 10.93L43.57 10.93L43.66 10.68L43.04 10.68Q42.46 8.92 41.82 7.28Q41.17 5.64 40.44 4.02L40.44 4.02L39.87 3.86L39.87 3.38L41.45 3.42L43.05 3.38L43.05 3.85L42.37 4.00Q42.79 5.47 43.24 6.76L43.24 6.76L44.14 9.52L45.00 6.77Q45.36 5.49 45.73 4.00L45.73 4.00ZM56.77 4.41L56.77 8.20L56.89 10.04L57.88 10.20L57.88 10.68L55.89 10.64L53.91 10.68L53.91 10.20L54.90 10.04L55.02 8.20L55.02 4.41L55.02 4.16L55.02 3.94L55.02 3.77L55.02 3.62Q55.02 3.09 54.96 2.81L54.96 2.81L54.92 2.29Q54.46 2.29 54.03 2.32Q53.61 2.36 53.33 2.41Q53.05 2.45 52.80 2.50Q52.56 2.55 52.46 2.60L52.46 2.60L52.01 3.48L51.52 3.29L51.79 2.35Q51.84 2.18 51.90 1.93Q51.95 1.68 52.00 1.38L52.00 1.38L59.80 1.38Q59.84 1.63 59.87 1.82Q59.91 2.00 60.00 2.35L60.00 2.35L60.28 3.29L59.79 3.48L59.34 2.60Q59.17 2.56 58.98 2.53L58.98 2.53Q58.70 2.45 58.54 2.42L58.54 2.42Q58.10 2.35 57.75 2.32Q57.39 2.29 56.89 2.29L56.89 2.29L56.83 2.81Q56.77 3.38 56.77 4.41L56.77 4.41ZM63.55 7.08L63.55 7.94Q63.55 8.42 63.57 8.75Q63.58 9.08 63.64 9.54Q63.70 10.00 63.72 10.04L63.72 10.04L64.61 10.20L64.61 10.68L62.74 10.64L61.03 10.68L61.03 10.20L61.78 10.04L61.85 9.39Q61.87 9.09 61.90 8.70Q61.92 8.32 61.92 7.94L61.92 7.94L61.92 6.40L61.92 6.22L61.92 6.06Q61.92 5.81 61.91 5.55Q61.90 5.28 61.86 5.03L61.86 5.03L61.79 4.19L60.91 4.02L60.91 3.54Q61.19 3.54 61.43 3.50L61.43 3.50Q61.78 3.43 61.95 3.41L61.95 3.41Q62.29 3.35 62.48 3.31Q62.67 3.26 62.99 3.17L62.99 3.17L63.41 3.17L63.36 5.24Q63.70 4.24 64.40 3.72L64.40 3.72Q64.73 3.48 65.07 3.35Q65.41 3.22 65.77 3.22L65.77 3.22Q65.91 3.22 66.05 3.24Q66.19 3.26 66.34 3.31Q66.50 3.35 66.59 3.43L66.59 3.43L66.18 4.48L65.95 5.27Q65.47 5.16 65.46 5.05L65.46 5.05Q65.46 4.91 65.48 4.84L65.48 4.84Q65.48 4.55 65.39 4.52Q65.31 4.48 65.15 4.48L65.15 4.48Q64.51 4.48 64.03 5.23Q63.55 5.98 63.55 7.08L63.55 7.08ZM71.81 6.87L71.81 6.87L71.32 6.87Q70.68 6.87 70.15 7.02Q69.62 7.17 69.24 7.45L69.24 7.45Q68.49 7.91 68.49 8.69L68.49 8.69Q68.49 9.04 68.83 9.35Q69.18 9.65 69.75 9.65L69.75 9.65Q70.70 9.65 71.26 8.85Q71.81 8.04 71.81 6.87ZM71.98 9.04L71.98 9.04Q71.29 10.23 70.55 10.54Q69.81 10.85 69.05 10.85L69.05 10.85Q68.02 10.85 67.38 10.28Q66.75 9.70 66.75 8.89L66.75 8.89Q66.75 7.58 68.09 6.83Q69.43 6.09 71.81 6.09L71.81 6.09L71.81 5.35Q71.81 4.65 71.46 4.41Q71.11 4.17 70.31 4.17L70.31 4.17Q69.50 4.17 68.98 4.36L68.98 4.36Q68.68 4.47 68.49 4.55L68.49 4.55Q68.45 4.56 68.40 4.59L68.40 4.59L68.40 5.28L67.93 5.43L67.22 3.85L68.20 3.54Q69.17 3.22 70.64 3.22L70.64 3.22Q72.93 3.22 73.26 4.58Q73.59 5.93 73.59 9.58L73.59 9.58L73.59 9.81L74.31 10.18L74.31 10.68L73.31 10.66L72.90 10.65L72.11 10.69Q72.09 10.63 72.06 10.53Q72.04 10.43 72.04 10.21L72.04 10.21Q72.04 9.97 72.03 9.68Q72.01 9.39 71.98 9.04ZM81.47 3.85L80.93 4.02Q80.62 4.75 80.24 5.73Q79.87 6.70 79.60 7.40L79.60 7.40L78.41 10.79L77.61 10.76L76.80 10.79Q76.22 9.01 75.64 7.39L75.64 7.39Q75.36 6.61 75.02 5.71L75.02 5.71Q74.73 4.94 74.34 4.00L74.34 4.00L73.71 3.86L73.71 3.38L75.31 3.42L76.93 3.38L76.93 3.85L76.20 4.00L77.95 9.75L78.81 6.87L79.60 4.00L78.95 3.86L78.95 3.38L80.21 3.42L81.47 3.38L81.47 3.85ZM87.36 8.42L87.88 8.92Q87.63 9.28 87.30 9.60Q86.97 9.93 86.49 10.23L86.49 10.23Q85.55 10.84 84.49 10.84L84.49 10.84Q82.77 10.84 81.80 9.85Q80.82 8.86 80.82 7.11L80.82 7.11Q80.82 5.50 81.97 4.36Q83.13 3.22 84.76 3.22L84.76 3.22Q86.11 3.22 86.94 4.02Q87.77 4.83 87.77 6.08L87.77 6.08L87.77 6.49L82.65 6.49Q82.65 8.03 83.21 8.84Q83.76 9.65 84.95 9.65L84.95 9.65Q85.78 9.65 86.41 9.21Q87.05 8.77 87.36 8.42L87.36 8.42ZM82.70 5.79L82.70 5.79L86.00 5.64L86.00 5.48Q86.00 4.77 85.67 4.38Q85.33 4.00 84.66 4.00L84.66 4.00Q83.76 4.00 83.19 4.67L83.19 4.67Q82.86 5.10 82.70 5.79ZM88.48 1.22L87.60 1.05L87.60 0.56L89.77 0.20L90.39 0.20L90.28 1.25L90.26 2.12L90.26 7.94Q90.26 8.35 90.27 8.72Q90.28 9.08 90.33 9.53Q90.37 9.98 90.40 10.04L90.40 10.04L91.15 10.20L91.15 10.68L89.43 10.64L87.72 10.68L87.72 10.20L88.46 10.04Q88.48 10.02 88.51 9.84Q88.54 9.66 88.54 9.39L88.54 9.39Q88.56 9.09 88.59 8.70Q88.61 8.32 88.61 7.94L88.61 7.94L88.61 3.42Q88.61 3.13 88.59 2.78Q88.58 2.42 88.56 1.99L88.56 1.99Q88.56 1.73 88.54 1.53Q88.52 1.32 88.48 1.22L88.48 1.22ZM103.29 7.38L103.29 7.38L103.29 7.03L103.25 3.54Q103.25 2.19 103.17 1.98L103.17 1.98L102.25 1.83L102.25 1.35L103.83 1.38L105.30 1.35L105.30 1.83L104.47 1.98Q104.45 2.10 104.42 2.68Q104.40 3.26 104.40 3.54L104.40 3.54L104.37 7.03L104.37 7.63Q104.37 9.07 103.26 9.97Q102.15 10.87 100.39 10.87L100.39 10.87Q98.63 10.87 97.73 10.08Q96.82 9.29 96.82 7.67L96.82 7.67L96.82 3.82L96.71 1.98L95.86 1.83L95.86 1.35L97.70 1.38L99.55 1.35L99.55 1.83L98.68 1.98L98.57 3.82L98.57 6.98Q98.57 8.32 99.14 9.04Q99.72 9.76 100.87 9.76L100.87 9.76Q101.93 9.76 102.61 9.10Q103.29 8.44 103.29 7.38ZM107.85 6.22L110.47 6.22L109.14 2.37L107.85 6.22ZM113.78 10.03L114.55 10.20L114.55 10.68L112.68 10.64L110.82 10.68L110.82 10.20L111.70 10.04L110.78 7.09L107.56 7.09L106.70 10.04L107.53 10.20L107.53 10.68L106.02 10.64L104.52 10.68L104.52 10.20L105.24 10.07Q105.60 9.22 106.10 7.96L106.10 7.96Q106.57 6.80 106.92 5.84L106.92 5.84Q107.64 3.93 108.44 1.62L108.44 1.62L109.22 1.43L110.00 1.17L110.57 1.36Q110.95 2.50 111.30 3.51L111.30 3.51Q111.71 4.73 112.07 5.70L112.07 5.70Q112.80 7.70 113.78 10.03L113.78 10.03ZM122.87 10.64L116.93 10.64L115.09 10.68L115.09 10.20L115.94 10.04L116.05 8.20L116.05 3.82L115.94 1.98L115.09 1.83L115.09 1.35L116.93 1.38L122.43 1.38L122.84 3.15L122.35 3.35L121.93 2.61Q121.83 2.56 121.51 2.50Q121.19 2.44 120.72 2.38L120.72 2.38Q119.77 2.28 118.73 2.28L118.73 2.28L117.90 2.28L117.85 3.03Q117.85 3.28 117.83 3.94Q117.80 4.61 117.80 4.77L117.80 4.77L117.80 5.11L118.31 5.11L120.77 5.02L121.06 4.41L121.56 4.41L121.48 5.58Q121.48 5.78 121.50 6.05Q121.52 6.31 121.57 6.74L121.57 6.74L121.07 6.74L120.76 6.06L118.57 5.97L117.80 5.97L117.80 7.26Q117.80 7.72 117.82 8.21Q117.84 8.70 117.85 9.00L117.85 9.00L117.90 9.75L118.98 9.75Q119.94 9.75 121.05 9.63Q122.16 9.52 122.33 9.45L122.33 9.45L122.84 8.51L123.31 8.69L122.87 10.64Z"></path></g><defs data-v-fde0c5aa=""><!----></defs><g data-v-fde0c5aa="" id="42ab95d3-779e-462f-bdfb-47bbb972211e" stroke="none" fill="#488eff" transform="matrix(0.6152625940292068,0,0,0.6152625940292068,118.72866443795753,95.24922569009648)"><g clip-rule="evenodd"><path d="M12.983 10.59l17.018 88.223-5.872-59.049 29.021-1.892-.054-9.883L64.549 1 53.622 18.977z"></path><path d="M59.389 54.548l5.16-53.541-8.74 39.716-19.612 1.045 1.57 20.462-7.766 36.583 12.057-39.899z"></path><path d="M62.8 67.182l.549-10.453-15.979 3.755-.032 11.797-17.337 26.532 21.68-27.616zM65.711 62.394l14.841-4.731 1.509-12.532-15.899 2.095zM72.07 44.502l10.988-1.417 1.581-10.278-8.079-.373L64.549 1l8.43 30.967z"></path><path d="M87.413 31.294l1.256-9.506-9.544-2.694L64.549 1l14.483 22.437-.422 7z"></path></g></g><!----></svg>