<svg xmlns="http://www.w3.org/2000/svg" xmlns:xlink="http://www.w3.org/1999/xlink" width="500" zoomAndPan="magnify" viewBox="0 0 375 374.999991" height="500" preserveAspectRatio="xMidYMid meet" version="1.0"><defs><g/><clipPath id="403db81de2"><path d="M 225 144 L 228.625 144 L 228.625 148 L 225 148 Z M 225 144 " clip-rule="nonzero"/></clipPath><clipPath id="a2397ae528"><path d="M 146.125 109.929688 L 228.625 109.929688 L 228.625 194.679688 L 146.125 194.679688 Z M 146.125 109.929688 " clip-rule="nonzero"/></clipPath></defs><rect x="-37.5" width="450" fill="#ffffff" y="-37.499999" height="449.999989" fill-opacity="1"/><rect x="-37.5" width="450" fill="#ffffff" y="-37.499999" height="449.999989" fill-opacity="1"/><path fill="#1b456d" d="M 195.769531 139.277344 L 197.292969 138.597656 L 200.996094 138.34375 L 201.359375 139.167969 L 200.804688 139.570312 L 201.289062 140 L 202.226562 140.207031 L 202.960938 140.511719 L 203.21875 141.078125 L 204.941406 141.691406 L 205.261719 141.292969 L 205.164062 140.707031 L 205.84375 140.394531 L 208.867188 141.476562 L 209.9375 141.214844 L 210.824219 141.511719 L 211.269531 141.273438 L 211.617188 138.730469 L 211.261719 138.828125 L 210.257812 138.796875 L 209.5 138.691406 L 209.476562 138.878906 C 209.476562 138.878906 209.277344 138.875 209.191406 138.925781 C 209.101562 138.976562 208.605469 138.640625 208.605469 138.640625 L 207.996094 138.089844 L 207.464844 137.339844 L 208.578125 136.910156 L 208.550781 136.652344 L 207.695312 136.832031 C 207.695312 136.832031 207.089844 136.726562 207.035156 136.710938 C 206.984375 136.695312 206.816406 136.859375 206.816406 136.859375 L 206.59375 136.957031 L 206.269531 136.863281 L 205.996094 137.046875 L 206.3125 137.523438 L 207.167969 138.085938 L 206.414062 138.214844 L 206.347656 138.585938 L 206.066406 138.636719 L 205.339844 137.660156 L 204.929688 137.179688 L 204.777344 136.355469 L 203.53125 135.6875 C 203.53125 135.6875 202.1875 134.539062 202.097656 134.539062 C 202.003906 134.535156 201.644531 134.722656 201.644531 134.722656 L 202.347656 135.609375 L 203.910156 136.695312 L 203.644531 136.949219 L 203.910156 137.539062 L 203.21875 137.835938 L 203.0625 138.476562 L 202.777344 138.527344 L 202.097656 138.03125 L 203.445312 137.574219 L 203.230469 137.097656 L 201.039062 135.695312 L 200.882812 135.296875 C 200.882812 135.296875 200.359375 135.09375 200.316406 135.09375 C 200.269531 135.09375 199.257812 135.679688 199.257812 135.679688 L 198.40625 135.425781 L 198.03125 135.621094 L 198.085938 136.175781 L 197.1875 136.53125 L 196.714844 137.101562 L 196.855469 137.574219 L 195.941406 138.433594 C 195.941406 138.433594 195.121094 138.492188 194.929688 138.492188 C 194.816406 138.492188 194.640625 138.601562 194.511719 138.695312 L 194.796875 139.277344 L 195.769531 139.277344 " fill-opacity="1" fill-rule="nonzero"/><path fill="#1b456d" d="M 208.761719 119.886719 C 208.320312 120.539062 208.488281 121.425781 209.140625 121.867188 C 209.382812 122.035156 209.664062 122.113281 209.941406 122.113281 C 210.398438 122.113281 210.84375 121.898438 211.121094 121.488281 C 211.5625 120.835938 211.390625 119.949219 210.742188 119.507812 C 210.089844 119.066406 209.203125 119.238281 208.761719 119.886719 " fill-opacity="1" fill-rule="nonzero"/><path fill="#1b456d" d="M 203.21875 116.980469 C 202.886719 117.691406 203.191406 118.539062 203.902344 118.878906 C 204.097656 118.96875 204.304688 119.011719 204.511719 119.011719 C 205.042969 119.011719 205.554688 118.710938 205.800781 118.195312 C 206.136719 117.484375 205.832031 116.632812 205.117188 116.300781 L 205.117188 116.296875 C 204.40625 115.960938 203.558594 116.265625 203.21875 116.980469 " fill-opacity="1" fill-rule="nonzero"/><path fill="#1b456d" d="M 191.132812 113.898438 C 191.027344 114.679688 191.582031 115.394531 192.363281 115.496094 C 192.421875 115.5 192.484375 115.507812 192.546875 115.507812 C 193.253906 115.507812 193.867188 114.980469 193.957031 114.265625 C 194.058594 113.484375 193.507812 112.769531 192.726562 112.667969 C 191.945312 112.566406 191.230469 113.117188 191.132812 113.898438 " fill-opacity="1" fill-rule="nonzero"/><path fill="#1b456d" d="M 213.785156 123.621094 C 213.246094 124.195312 213.273438 125.097656 213.847656 125.636719 C 214.125 125.894531 214.472656 126.023438 214.824219 126.023438 C 215.203125 126.023438 215.582031 125.871094 215.863281 125.570312 C 216.402344 124.996094 216.375 124.097656 215.796875 123.558594 C 215.222656 123.019531 214.320312 123.046875 213.785156 123.621094 " fill-opacity="1" fill-rule="nonzero"/><path fill="#1b456d" d="M 180.082031 115.875 C 180.171875 115.875 180.257812 115.867188 180.347656 115.847656 C 181.125 115.703125 181.628906 114.957031 181.480469 114.183594 C 181.335938 113.410156 180.589844 112.902344 179.816406 113.046875 C 179.042969 113.195312 178.535156 113.941406 178.683594 114.714844 C 178.8125 115.398438 179.410156 115.875 180.082031 115.875 " fill-opacity="1" fill-rule="nonzero"/><path fill="#1b456d" d="M 184.875 113.8125 C 184.898438 114.585938 185.53125 115.195312 186.300781 115.195312 C 186.3125 115.195312 186.328125 115.195312 186.339844 115.195312 C 187.128906 115.171875 187.746094 114.511719 187.726562 113.726562 C 187.703125 112.941406 187.042969 112.324219 186.257812 112.34375 C 185.46875 112.367188 184.851562 113.027344 184.875 113.8125 " fill-opacity="1" fill-rule="nonzero"/><path fill="#1b456d" d="M 218.15625 128.09375 C 217.539062 128.578125 217.421875 129.472656 217.90625 130.09375 C 218.1875 130.457031 218.605469 130.648438 219.035156 130.648438 C 219.335938 130.648438 219.644531 130.550781 219.90625 130.347656 C 220.527344 129.867188 220.640625 128.972656 220.15625 128.347656 C 219.675781 127.726562 218.78125 127.613281 218.15625 128.09375 " fill-opacity="1" fill-rule="nonzero"/><path fill="#1b456d" d="M 199.066406 114 C 198.3125 113.777344 197.519531 114.210938 197.296875 114.964844 C 197.074219 115.71875 197.507812 116.511719 198.265625 116.734375 C 198.398438 116.773438 198.535156 116.792969 198.667969 116.792969 C 199.28125 116.792969 199.847656 116.386719 200.03125 115.769531 C 200.253906 115.011719 199.820312 114.21875 199.066406 114 " fill-opacity="1" fill-rule="nonzero"/><path fill="#1b456d" d="M 223.679688 140.636719 C 223.683594 140.636719 223.683594 140.636719 223.683594 140.636719 C 223.890625 141.21875 224.4375 141.582031 225.023438 141.582031 C 225.183594 141.582031 225.347656 141.554688 225.503906 141.5 C 226.246094 141.234375 226.632812 140.417969 226.363281 139.675781 C 226.097656 138.933594 225.285156 138.550781 224.542969 138.816406 C 223.800781 139.082031 223.417969 139.894531 223.679688 140.636719 " fill-opacity="1" fill-rule="nonzero"/><path fill="#1b456d" d="M 222.460938 135.878906 C 222.691406 135.878906 222.925781 135.824219 223.144531 135.703125 C 223.835938 135.328125 224.085938 134.457031 223.710938 133.769531 C 223.332031 133.078125 222.464844 132.824219 221.777344 133.203125 C 221.085938 133.578125 220.828125 134.445312 221.210938 135.136719 C 221.46875 135.609375 221.957031 135.878906 222.460938 135.878906 " fill-opacity="1" fill-rule="nonzero"/><g clip-path="url(#403db81de2)"><path fill="#1b456d" d="M 225.269531 146.453125 C 225.402344 147.140625 225.996094 147.617188 226.667969 147.617188 C 226.757812 147.617188 226.847656 147.609375 226.9375 147.589844 C 227.710938 147.441406 228.21875 146.695312 228.070312 145.921875 C 227.921875 145.152344 227.175781 144.644531 226.402344 144.789062 C 225.632812 144.9375 225.121094 145.683594 225.269531 146.453125 " fill-opacity="1" fill-rule="nonzero"/></g><g clip-path="url(#a2397ae528)"><path fill="#1b456d" d="M 183.289062 123.21875 C 183.34375 123.261719 183.382812 123.285156 183.382812 123.285156 L 180.039062 125.203125 L 179.085938 126.945312 L 177.25 128.015625 L 175.988281 127.539062 L 174.984375 126.523438 L 172.574219 127.226562 L 173.832031 128.03125 L 175.070312 128.949219 L 174.246094 129.730469 L 171.925781 129.273438 L 172.484375 128.710938 L 171.714844 128.042969 L 170.71875 128.601562 L 170.578125 128.117188 C 174.308594 125.589844 178.628906 123.875 183.289062 123.21875 Z M 180.472656 166.914062 L 179.617188 169.175781 L 178.015625 169.664062 L 177.613281 171.265625 L 175.308594 174.960938 L 173.488281 176.003906 L 173.566406 178.273438 L 175.285156 179.171875 L 174.101562 179.160156 L 171.800781 178.179688 L 170.273438 174.59375 L 169.007812 166.492188 L 166.855469 164.648438 L 164.679688 160.347656 L 164.445312 158.433594 L 165.582031 155.855469 L 165.539062 154.046875 L 164.902344 153 L 164.148438 153.8125 L 162.167969 150.964844 L 161.09375 150.429688 L 160.316406 149.457031 L 159.660156 149.761719 L 157.625 148.105469 C 158.648438 142.171875 161.402344 136.824219 165.34375 132.59375 L 166.699219 134.878906 C 167.007812 135.402344 167.527344 135.765625 168.121094 135.882812 C 168.171875 135.894531 168.21875 135.90625 168.269531 135.910156 C 168.320312 135.917969 168.371094 135.917969 168.421875 135.921875 C 168.460938 135.921875 168.5 135.929688 168.535156 135.929688 C 169.101562 135.929688 169.644531 135.707031 170.046875 135.300781 L 171.199219 134.152344 C 171.753906 133.597656 171.957031 132.785156 171.734375 132.035156 L 171.203125 130.234375 L 172.289062 130.324219 L 172.308594 130.804688 L 173.683594 130.664062 L 174.382812 131.109375 L 174.4375 131.605469 L 175.894531 132.4375 L 175.703125 133.183594 L 176.417969 134.246094 L 176.417969 134.902344 L 174.273438 134.824219 L 174.921875 133.160156 L 171.773438 133.886719 L 172.191406 134.746094 L 173.472656 134.90625 L 172.742188 135.734375 L 169.921875 136.480469 L 169.726562 137.25 L 167.949219 137.84375 L 167.390625 139.808594 L 165.234375 142.097656 L 165.207031 144.5625 L 164.816406 145.3125 L 164.199219 144.046875 L 164.148438 142.816406 L 160.519531 143.351562 L 159.546875 147.199219 L 160.136719 148.367188 L 161.246094 148.421875 L 162.007812 147.0625 L 162.789062 146.851562 L 162.191406 149.667969 L 163.71875 149.902344 L 163.78125 152.601562 L 164.261719 153.117188 L 165.054688 152.707031 L 165.648438 152.4375 L 165.65625 152.816406 L 165.972656 152.144531 L 167.425781 151.691406 L 171.210938 152.136719 L 172.769531 154.371094 L 175.019531 155.417969 L 175.625 157.796875 L 179.523438 159.253906 L 181.761719 160.683594 L 182.007812 162.316406 L 180.417969 164.835938 Z M 160.359375 131.558594 L 159.945312 130.285156 L 162.476562 127.753906 L 163.335938 129.203125 C 163.171875 129.363281 163.007812 129.527344 162.847656 129.691406 C 162 130.574219 161.199219 131.503906 160.449219 132.472656 C 160.484375 132.171875 160.457031 131.859375 160.359375 131.558594 Z M 164.933594 127.703125 L 162.914062 124.292969 L 158.378906 128.824219 C 158.257812 128.949219 158.113281 129.039062 157.960938 129.09375 C 157.941406 129.101562 157.925781 129.109375 157.910156 129.117188 C 157.851562 129.144531 157.792969 129.179688 157.746094 129.21875 C 157.640625 129.3125 157.570312 129.4375 157.546875 129.574219 C 157.535156 129.632812 157.527344 129.691406 157.535156 129.753906 C 157.539062 129.792969 157.550781 129.835938 157.5625 129.875 L 158.328125 132.222656 L 157.421875 133.128906 L 156.101562 131.476562 L 154.921875 130 L 154.652344 129.730469 L 154.140625 129.320312 L 151.523438 127.230469 L 152.429688 126.324219 L 154.777344 127.089844 C 154.8125 127.101562 154.851562 127.109375 154.886719 127.113281 C 154.898438 127.117188 154.910156 127.117188 154.921875 127.117188 C 154.9375 127.117188 154.953125 127.121094 154.964844 127.121094 C 154.976562 127.121094 154.988281 127.121094 155 127.117188 C 155.011719 127.117188 155.023438 127.117188 155.039062 127.117188 C 155.0625 127.113281 155.089844 127.109375 155.113281 127.101562 C 155.125 127.097656 155.132812 127.097656 155.144531 127.09375 C 155.160156 127.089844 155.179688 127.078125 155.195312 127.074219 C 155.210938 127.066406 155.226562 127.0625 155.242188 127.054688 C 155.246094 127.050781 155.25 127.050781 155.253906 127.046875 C 155.277344 127.035156 155.300781 127.019531 155.324219 127.003906 C 155.328125 127 155.332031 126.996094 155.335938 126.996094 C 155.34375 126.988281 155.355469 126.980469 155.363281 126.972656 C 155.382812 126.957031 155.402344 126.9375 155.417969 126.921875 C 155.421875 126.914062 155.425781 126.910156 155.433594 126.902344 C 155.4375 126.898438 155.441406 126.894531 155.445312 126.890625 C 155.460938 126.871094 155.476562 126.847656 155.488281 126.828125 C 155.492188 126.824219 155.496094 126.816406 155.5 126.8125 C 155.5 126.808594 155.503906 126.804688 155.507812 126.796875 C 155.511719 126.792969 155.515625 126.789062 155.515625 126.785156 C 155.53125 126.757812 155.546875 126.726562 155.558594 126.691406 C 155.613281 126.539062 155.703125 126.394531 155.828125 126.273438 L 160.359375 121.738281 L 154.738281 118.410156 L 150.863281 116.117188 L 152.011719 114.964844 L 163.679688 118.421875 L 167.246094 114.851562 C 167.386719 114.710938 167.523438 114.578125 167.660156 114.449219 C 167.703125 114.410156 167.742188 114.371094 167.78125 114.335938 C 167.878906 114.242188 167.976562 114.15625 168.070312 114.070312 C 168.113281 114.03125 168.152344 113.996094 168.195312 113.957031 C 168.296875 113.867188 168.398438 113.78125 168.496094 113.695312 C 168.523438 113.671875 168.550781 113.648438 168.578125 113.628906 C 168.703125 113.523438 168.824219 113.425781 168.941406 113.332031 C 168.96875 113.3125 168.996094 113.292969 169.023438 113.269531 C 169.117188 113.199219 169.207031 113.132812 169.292969 113.066406 C 169.328125 113.042969 169.367188 113.015625 169.402344 112.992188 C 169.484375 112.933594 169.5625 112.878906 169.644531 112.824219 C 169.675781 112.804688 169.703125 112.785156 169.734375 112.765625 C 169.839844 112.695312 169.945312 112.632812 170.046875 112.574219 C 170.050781 112.570312 170.054688 112.570312 170.058594 112.566406 C 170.15625 112.511719 170.246094 112.460938 170.335938 112.414062 C 170.367188 112.402344 170.394531 112.386719 170.421875 112.375 C 170.488281 112.34375 170.554688 112.3125 170.617188 112.285156 C 170.648438 112.273438 170.675781 112.261719 170.703125 112.25 C 170.773438 112.222656 170.839844 112.195312 170.90625 112.175781 C 170.921875 112.167969 170.9375 112.164062 170.953125 112.160156 C 171.035156 112.132812 171.109375 112.113281 171.183594 112.097656 C 171.203125 112.09375 171.222656 112.09375 171.238281 112.089844 C 171.292969 112.082031 171.347656 112.074219 171.398438 112.066406 C 171.417969 112.066406 171.441406 112.066406 171.460938 112.066406 C 171.480469 112.0625 171.5 112.0625 171.515625 112.0625 C 171.542969 112.0625 171.5625 112.066406 171.585938 112.066406 C 171.609375 112.066406 171.636719 112.070312 171.660156 112.070312 C 171.699219 112.078125 171.734375 112.085938 171.769531 112.09375 C 171.789062 112.097656 171.8125 112.105469 171.832031 112.109375 C 171.867188 112.121094 171.902344 112.136719 171.933594 112.15625 C 171.949219 112.164062 171.96875 112.167969 171.980469 112.179688 C 171.984375 112.179688 171.988281 112.179688 171.992188 112.183594 C 172.03125 112.207031 172.070312 112.238281 172.105469 112.273438 L 172.378906 112.546875 C 172.496094 112.664062 172.566406 112.820312 172.585938 113.015625 C 172.644531 113.601562 172.253906 114.515625 171.335938 115.691406 C 170.929688 116.214844 170.417969 116.785156 169.800781 117.40625 L 166.230469 120.976562 L 167.28125 124.515625 L 167.597656 125.578125 L 169.441406 131.808594 L 169.6875 132.640625 L 168.535156 133.789062 L 168.199219 133.222656 Z M 189.472656 146.023438 L 191.058594 142.816406 L 191.882812 142.796875 L 192.679688 141.707031 L 192.597656 141.074219 L 193.972656 139.886719 L 194.238281 139.109375 L 193.863281 138.363281 L 193.777344 138.28125 L 193.199219 138.339844 L 192.890625 137.433594 L 193.199219 136.703125 L 192.996094 135.445312 L 196.105469 135.519531 L 196.34375 134.402344 C 196.34375 134.402344 195.886719 133.886719 195.792969 133.886719 C 195.699219 133.886719 195.105469 133.707031 195.105469 133.707031 L 194.929688 133.386719 L 196.121094 133.292969 L 196.167969 133.113281 L 196.578125 133.066406 L 197.351562 132.800781 L 197.394531 132.496094 L 198.070312 132.328125 L 198.597656 131.785156 L 199.972656 131.589844 L 200.179688 131.308594 L 199.625 130.5625 L 200.753906 130.175781 L 200.828125 130.542969 L 200.503906 130.882812 L 200.613281 131.195312 L 201.027344 131.398438 L 201.769531 131.292969 L 202.277344 131.539062 L 203.425781 131.203125 L 204.011719 131.335938 L 204.804688 131.082031 L 204.636719 130.867188 L 204.675781 130.457031 L 205.1875 130.269531 L 205.65625 130.5 L 205.828125 130.289062 L 205.441406 129.820312 L 206.722656 129.792969 L 206.742188 129.777344 C 208.425781 131.15625 209.957031 132.710938 211.3125 134.414062 L 210.984375 134.414062 L 210.628906 134.675781 L 210.808594 134.964844 L 210.285156 135.328125 L 209.777344 134.597656 L 208.914062 134.46875 L 207.9375 136.082031 L 208.210938 136.492188 L 209.289062 136.726562 L 209.933594 136.394531 L 210.878906 136.378906 L 211.882812 136.820312 L 213.050781 136.867188 L 213.089844 136.890625 C 215.457031 140.574219 217.054688 144.796875 217.644531 149.335938 L 217.707031 149.929688 L 217.199219 150.332031 L 215.453125 150.992188 L 215.210938 150.496094 L 214.828125 148.59375 L 213.679688 146.9375 L 213.34375 145.847656 L 213.023438 145.125 L 212.578125 144.757812 L 211.570312 142.972656 L 210.914062 143.019531 L 211.789062 144.871094 L 211.945312 145.542969 L 212.457031 146.070312 L 212.769531 147.773438 L 213.257812 148.144531 L 213.628906 149.375 L 214.289062 149.925781 L 215.269531 151.175781 L 215.042969 151.542969 L 215.71875 152.34375 L 216.308594 151.980469 L 217.851562 151.652344 L 217.882812 153.644531 L 217.605469 154.203125 L 217.511719 154.625 L 216.09375 156.660156 L 215.574219 157.035156 L 215.171875 157.546875 L 213.855469 159.316406 L 213.21875 160.960938 L 213.476562 161.375 L 213.566406 162.972656 L 213.789062 163.140625 L 213.707031 163.667969 L 213.753906 165.328125 C 213.753906 165.328125 213.207031 166.242188 213.128906 166.351562 C 213.050781 166.460938 212.238281 166.773438 212.238281 166.773438 L 211.074219 167.847656 L 211.207031 168.75 L 211.015625 170.007812 L 210.046875 170.5 L 210.054688 170.800781 L 209.703125 171.746094 L 206.757812 174.011719 L 204.484375 174.378906 L 203.976562 174.082031 L 204.035156 173.5 L 203.46875 172.058594 L 202.960938 171.328125 L 202.703125 169.113281 L 201.722656 167.210938 L 201.910156 165.148438 L 202.691406 164.367188 L 202.699219 163.800781 L 202.425781 162.789062 L 202.535156 162.304688 L 202.148438 160.652344 L 201.0625 159.5625 L 200.640625 158.4375 L 200.847656 157.875 L 201.191406 155.957031 L 200.503906 155.355469 L 200.234375 155.421875 L 199.242188 155.359375 L 198.789062 154.472656 L 197.320312 154.535156 L 195.972656 155.421875 L 195.496094 155.105469 L 194.433594 155.042969 L 193.570312 155.453125 L 191.148438 153.585938 L 190.847656 152.636719 L 189.648438 151.3125 L 189.210938 149.867188 L 189.625 149.429688 L 189.75 147.066406 Z M 146.257812 155.535156 C 146.261719 155.554688 146.261719 155.574219 146.265625 155.59375 C 146.472656 159.957031 147.359375 164.140625 148.824219 168.050781 C 148.828125 168.0625 148.828125 168.070312 148.832031 168.082031 C 148.835938 168.089844 148.839844 168.097656 148.84375 168.105469 C 149.574219 170.050781 150.449219 171.929688 151.457031 173.726562 C 151.480469 173.789062 151.507812 173.847656 151.539062 173.90625 C 151.574219 173.960938 151.609375 174.015625 151.648438 174.070312 C 152.644531 175.808594 153.765625 177.46875 154.992188 179.039062 C 155.03125 179.105469 155.074219 179.171875 155.121094 179.234375 C 155.175781 179.300781 155.234375 179.359375 155.292969 179.414062 C 156.546875 180.972656 157.910156 182.441406 159.371094 183.804688 C 159.410156 183.851562 159.445312 183.898438 159.492188 183.941406 C 159.535156 183.980469 159.582031 184.011719 159.625 184.042969 C 161.152344 185.441406 162.78125 186.722656 164.503906 187.882812 C 164.515625 187.890625 164.527344 187.902344 164.539062 187.910156 C 164.546875 187.914062 164.554688 187.917969 164.558594 187.921875 C 171.125 192.328125 179.019531 194.902344 187.503906 194.902344 C 187.925781 194.902344 188.34375 194.894531 188.761719 194.882812 C 188.777344 194.882812 188.796875 194.886719 188.8125 194.886719 C 188.828125 194.886719 188.84375 194.886719 188.859375 194.886719 C 188.902344 194.882812 188.949219 194.878906 188.996094 194.875 C 191.109375 194.796875 193.179688 194.5625 195.203125 194.179688 C 195.214844 194.179688 195.230469 194.175781 195.242188 194.175781 C 195.257812 194.171875 195.269531 194.167969 195.28125 194.164062 C 199.523438 193.351562 203.53125 191.894531 207.207031 189.890625 C 207.257812 189.871094 207.3125 189.84375 207.359375 189.816406 C 207.414062 189.789062 207.464844 189.753906 207.515625 189.71875 C 209.28125 188.734375 210.96875 187.625 212.5625 186.402344 C 212.636719 186.363281 212.710938 186.320312 212.777344 186.265625 C 212.84375 186.21875 212.898438 186.164062 212.953125 186.105469 C 214.539062 184.863281 216.03125 183.503906 217.417969 182.046875 C 217.46875 182 217.523438 181.957031 217.570312 181.90625 C 217.613281 181.859375 217.644531 181.8125 217.679688 181.761719 C 219.097656 180.242188 220.402344 178.613281 221.582031 176.890625 C 221.59375 176.875 221.605469 176.863281 221.617188 176.847656 C 221.625 176.832031 221.632812 176.816406 221.644531 176.804688 C 226.152344 170.1875 228.789062 162.207031 228.789062 153.617188 C 228.789062 153.394531 228.738281 153.183594 228.644531 152.996094 C 228.734375 152.804688 228.78125 152.589844 228.773438 152.363281 C 228.75 151.578125 228.09375 150.960938 227.308594 150.980469 C 226.519531 151.003906 225.902344 151.664062 225.925781 152.449219 C 225.933594 152.65625 225.984375 152.851562 226.066406 153.027344 C 225.988281 153.207031 225.941406 153.40625 225.941406 153.617188 C 225.941406 155.214844 225.839844 156.792969 225.648438 158.34375 C 225.640625 158.382812 225.632812 158.425781 225.625 158.46875 C 225.621094 158.515625 225.617188 158.566406 225.613281 158.613281 C 225.367188 160.511719 224.980469 162.367188 224.46875 164.164062 C 224.4375 164.230469 224.410156 164.296875 224.386719 164.367188 C 224.367188 164.4375 224.355469 164.503906 224.347656 164.570312 C 223.804688 166.386719 223.136719 168.144531 222.34375 169.839844 C 222.308594 169.890625 222.277344 169.945312 222.246094 170.007812 C 222.21875 170.066406 222.195312 170.128906 222.175781 170.195312 C 221.332031 171.957031 220.355469 173.644531 219.257812 175.246094 C 219.257812 175.25 219.253906 175.25 219.253906 175.253906 C 213.625 183.488281 204.882812 189.429688 194.738281 191.371094 C 194.730469 191.371094 194.71875 191.371094 194.707031 191.375 C 194.699219 191.375 194.691406 191.378906 194.683594 191.378906 C 192.359375 191.820312 189.957031 192.054688 187.503906 192.054688 C 185.941406 192.054688 184.402344 191.957031 182.886719 191.773438 C 182.859375 191.769531 182.828125 191.761719 182.796875 191.757812 C 182.753906 191.753906 182.707031 191.75 182.664062 191.75 C 180.773438 191.511719 178.921875 191.132812 177.125 190.628906 C 177.066406 190.601562 177.003906 190.578125 176.941406 190.558594 C 176.875 190.539062 176.8125 190.527344 176.75 190.519531 C 174.945312 189.992188 173.195312 189.339844 171.511719 188.5625 C 171.457031 188.527344 171.398438 188.496094 171.339844 188.464844 C 171.28125 188.441406 171.21875 188.417969 171.160156 188.398438 C 169.417969 187.578125 167.746094 186.628906 166.15625 185.5625 C 166.144531 185.554688 166.136719 185.546875 166.125 185.539062 C 166.109375 185.53125 166.09375 185.523438 166.078125 185.511719 C 157.882812 179.988281 151.917969 171.390625 149.855469 161.382812 C 149.851562 161.367188 149.851562 161.351562 149.851562 161.339844 C 149.847656 161.324219 149.84375 161.3125 149.839844 161.300781 C 149.332031 158.816406 149.066406 156.246094 149.066406 153.617188 C 149.066406 152.238281 149.144531 150.851562 149.292969 149.472656 C 149.292969 149.460938 149.296875 149.445312 149.300781 149.433594 C 149.304688 149.410156 149.304688 149.386719 149.304688 149.363281 C 149.390625 148.59375 149.496094 147.828125 149.628906 147.066406 C 149.824219 145.921875 150.078125 144.792969 150.375 143.679688 C 150.390625 143.640625 150.410156 143.601562 150.421875 143.558594 C 150.4375 143.503906 150.449219 143.445312 150.457031 143.390625 C 150.957031 141.574219 151.585938 139.808594 152.347656 138.09375 C 152.417969 137.980469 152.472656 137.855469 152.507812 137.722656 C 153.195312 136.21875 153.984375 134.757812 154.863281 133.347656 L 155.753906 134.464844 C 156.132812 134.9375 156.695312 135.230469 157.304688 135.261719 C 157.34375 135.265625 157.382812 135.265625 157.421875 135.265625 C 157.953125 135.265625 158.460938 135.066406 158.851562 134.714844 C 156.347656 138.542969 154.585938 142.902344 153.78125 147.582031 C 153.453125 149.480469 153.28125 151.429688 153.28125 153.421875 C 153.28125 172.316406 168.652344 187.6875 187.550781 187.6875 C 206.445312 187.6875 221.816406 172.316406 221.816406 153.421875 C 221.816406 151.910156 221.71875 150.425781 221.527344 148.96875 C 220.863281 143.847656 219.058594 139.078125 216.386719 134.921875 C 215.761719 133.957031 215.09375 133.023438 214.378906 132.128906 C 212.851562 130.207031 211.121094 128.449219 209.222656 126.894531 C 203.3125 122.058594 195.761719 119.152344 187.550781 119.152344 C 185.917969 119.152344 184.316406 119.269531 182.746094 119.488281 C 177.921875 120.167969 173.421875 121.859375 169.457031 124.332031 L 168.640625 121.585938 L 171.3125 118.917969 C 171.960938 118.269531 172.515625 117.648438 172.980469 117.054688 C 172.996094 117.074219 173.011719 117.089844 173.027344 117.109375 C 173.289062 117.371094 173.660156 117.523438 174.035156 117.523438 C 174.410156 117.523438 174.777344 117.371094 175.042969 117.109375 C 175.308594 116.839844 175.460938 116.476562 175.460938 116.101562 C 175.460938 115.726562 175.308594 115.355469 175.042969 115.089844 C 174.863281 114.914062 174.636719 114.789062 174.394531 114.722656 C 175.199219 112.675781 174.328125 111.472656 173.890625 111.035156 L 173.617188 110.761719 C 173.078125 110.222656 172.332031 109.921875 171.519531 109.921875 C 169.925781 109.921875 168.035156 111.042969 165.734375 113.339844 L 163.066406 116.011719 L 152.617188 112.917969 C 152.417969 112.855469 152.214844 112.828125 152.011719 112.828125 C 151.453125 112.828125 150.90625 113.046875 150.5 113.453125 L 149.351562 114.605469 C 148.917969 115.035156 148.699219 115.628906 148.730469 116.230469 C 148.734375 116.28125 148.734375 116.332031 148.742188 116.382812 C 148.746094 116.433594 148.757812 116.484375 148.769531 116.53125 C 148.886719 117.125 149.25 117.644531 149.773438 117.957031 L 156.898438 122.175781 L 154.367188 124.707031 L 153.09375 124.292969 C 152.875 124.21875 152.652344 124.1875 152.429688 124.1875 C 151.871094 124.1875 151.324219 124.40625 150.917969 124.8125 L 150.011719 125.71875 C 149.582031 126.148438 149.355469 126.742188 149.390625 127.347656 C 149.421875 127.957031 149.714844 128.519531 150.1875 128.898438 L 152.917969 131.082031 C 149.855469 135.761719 147.777344 141.015625 146.816406 146.582031 C 146.417969 148.898438 146.21875 151.265625 146.21875 153.617188 C 146.21875 154.234375 146.234375 154.847656 146.257812 155.457031 C 146.257812 155.484375 146.257812 155.511719 146.257812 155.535156 " fill-opacity="1" fill-rule="nonzero"/></g><g fill="#000000" fill-opacity="1"><g transform="translate(102.533975, 227.630715)"><g><path d="M 22 0 L 22 -3.3125 L 6.21875 -3.3125 L 6.21875 -20.859375 L 2.90625 -20.859375 L 2.90625 0 Z M 22 0 "/></g></g></g><g fill="#000000" fill-opacity="1"><g transform="translate(125.424859, 227.630715)"><g><path d="M 20.40625 0 C 22.238281 0 23.800781 -0.644531 25.09375 -1.9375 C 26.382812 -3.226562 27.03125 -4.789062 27.03125 -6.625 L 27.03125 -20.859375 L 23.71875 -20.859375 L 23.71875 -6.625 C 23.71875 -5.707031 23.390625 -4.925781 22.734375 -4.28125 C 22.085938 -3.632812 21.3125 -3.3125 20.40625 -3.3125 L 8.8125 -3.3125 C 7.894531 -3.3125 7.113281 -3.632812 6.46875 -4.28125 C 5.820312 -4.925781 5.5 -5.707031 5.5 -6.625 L 5.5 -20.859375 L 2.1875 -20.859375 L 2.1875 -6.625 C 2.1875 -4.789062 2.832031 -3.226562 4.125 -1.9375 C 5.414062 -0.644531 6.976562 0 8.8125 0 Z M 20.40625 0 "/></g></g></g><g fill="#000000" fill-opacity="1"><g transform="translate(154.507946, 227.630715)"><g><path d="M 29.15625 0 L 24.109375 0 L 14.78125 -8.21875 L 5.4375 0 L 0.4375 0 L 12.265625 -10.421875 L 0.4375 -20.859375 L 5.4375 -20.859375 L 14.78125 -12.640625 L 24.109375 -20.859375 L 29.15625 -20.859375 L 17.28125 -10.421875 Z M 29.15625 0 "/></g></g></g><g fill="#000000" fill-opacity="1"><g transform="translate(183.968958, 227.630715)"><g><path d="M 20.40625 0 C 22.238281 0 23.800781 -0.644531 25.09375 -1.9375 C 26.382812 -3.226562 27.03125 -4.789062 27.03125 -6.625 L 27.03125 -20.859375 L 23.71875 -20.859375 L 23.71875 -6.625 C 23.71875 -5.707031 23.390625 -4.925781 22.734375 -4.28125 C 22.085938 -3.632812 21.3125 -3.3125 20.40625 -3.3125 L 8.8125 -3.3125 C 7.894531 -3.3125 7.113281 -3.632812 6.46875 -4.28125 C 5.820312 -4.925781 5.5 -5.707031 5.5 -6.625 L 5.5 -20.859375 L 2.1875 -20.859375 L 2.1875 -6.625 C 2.1875 -4.789062 2.832031 -3.226562 4.125 -1.9375 C 5.414062 -0.644531 6.976562 0 8.8125 0 Z M 20.40625 0 "/></g></g></g><g fill="#000000" fill-opacity="1"><g transform="translate(213.052049, 227.630715)"><g><path d="M 27.765625 0 L 24.4375 0 L 24.4375 -5.875 C 24.4375 -6.332031 24.273438 -6.722656 23.953125 -7.046875 C 23.628906 -7.367188 23.238281 -7.53125 22.78125 -7.53125 L 6.21875 -7.53125 L 6.21875 0 L 2.90625 0 L 2.90625 -20.859375 L 22.78125 -20.859375 C 24.15625 -20.859375 25.328125 -20.367188 26.296875 -19.390625 C 27.273438 -18.421875 27.765625 -17.253906 27.765625 -15.890625 L 27.765625 -12.5 C 27.765625 -11.226562 27.335938 -10.125 26.484375 -9.1875 C 27.335938 -8.25 27.765625 -7.144531 27.765625 -5.875 Z M 22.78125 -10.84375 C 23.238281 -10.84375 23.628906 -11.003906 23.953125 -11.328125 C 24.273438 -11.660156 24.4375 -12.050781 24.4375 -12.5 L 24.4375 -15.890625 C 24.4375 -16.347656 24.273438 -16.738281 23.953125 -17.0625 C 23.628906 -17.382812 23.238281 -17.546875 22.78125 -17.546875 L 6.21875 -17.546875 L 6.21875 -10.84375 Z M 22.78125 -10.84375 "/></g></g></g><g fill="#000000" fill-opacity="1"><g transform="translate(242.861923, 227.630715)"><g><path d="M 16.453125 0 L 13.125 0 L 13.125 -9.6875 L 0.4375 -20.859375 L 5.4375 -20.859375 L 14.78125 -12.640625 L 24.109375 -20.859375 L 29.15625 -20.859375 L 16.453125 -9.6875 Z M 16.453125 0 "/></g></g></g><g fill="#000000" fill-opacity="1"><g transform="translate(57.192988, 268.896244)"><g><path d="M 13.1875 0 L 9.875 0 L 9.875 -17.546875 L 0.4375 -17.546875 L 0.4375 -20.859375 L 22.640625 -20.859375 L 22.640625 -17.546875 L 13.1875 -17.546875 Z M 13.1875 0 "/></g></g></g><g fill="#000000" fill-opacity="1"><g transform="translate(80.142015, 268.896244)"><g><path d="M 27.765625 0 L 24.4375 0 L 24.4375 -5.875 C 24.4375 -6.332031 24.273438 -6.722656 23.953125 -7.046875 C 23.628906 -7.367188 23.238281 -7.53125 22.78125 -7.53125 L 6.21875 -7.53125 L 6.21875 0 L 2.90625 0 L 2.90625 -20.859375 L 22.78125 -20.859375 C 24.15625 -20.859375 25.328125 -20.367188 26.296875 -19.390625 C 27.273438 -18.421875 27.765625 -17.253906 27.765625 -15.890625 L 27.765625 -12.5 C 27.765625 -11.226562 27.335938 -10.125 26.484375 -9.1875 C 27.335938 -8.25 27.765625 -7.144531 27.765625 -5.875 Z M 22.78125 -10.84375 C 23.238281 -10.84375 23.628906 -11.003906 23.953125 -11.328125 C 24.273438 -11.660156 24.4375 -12.050781 24.4375 -12.5 L 24.4375 -15.890625 C 24.4375 -16.347656 24.273438 -16.738281 23.953125 -17.0625 C 23.628906 -17.382812 23.238281 -17.546875 22.78125 -17.546875 L 6.21875 -17.546875 L 6.21875 -10.84375 Z M 22.78125 -10.84375 "/></g></g></g><g fill="#000000" fill-opacity="1"><g transform="translate(109.951887, 268.896244)"><g><path d="M 30.40625 0 L 26.390625 0 L 23.34375 -4.515625 L 7.5 -4.515625 L 4.4375 0 L 0.4375 0 L 14.546875 -20.859375 L 16.296875 -20.859375 Z M 21.09375 -7.84375 L 15.421875 -16.25 L 9.734375 -7.84375 Z M 21.09375 -7.84375 "/></g></g></g><g fill="#000000" fill-opacity="1"><g transform="translate(140.662969, 268.896244)"><g><path d="M 16.28125 0 L 14.53125 0 L 0.4375 -20.859375 L 4.4375 -20.859375 L 15.421875 -4.609375 L 26.375 -20.859375 L 30.4375 -20.859375 Z M 16.28125 0 "/></g></g></g><g fill="#000000" fill-opacity="1"><g transform="translate(171.403127, 268.896244)"><g><path d="M 26.109375 0 L 2.90625 0 L 2.90625 -20.859375 L 26.109375 -20.859375 L 26.109375 -17.546875 L 6.21875 -17.546875 L 6.21875 -12.078125 L 23.75 -12.078125 L 23.75 -8.765625 L 6.21875 -8.765625 L 6.21875 -3.3125 L 26.109375 -3.3125 Z M 26.109375 0 "/></g></g></g><g fill="#000000" fill-opacity="1"><g transform="translate(199.555934, 268.896244)"><g><path d="M 22 0 L 22 -3.3125 L 6.21875 -3.3125 L 6.21875 -20.859375 L 2.90625 -20.859375 L 2.90625 0 Z M 22 0 "/></g></g></g><g fill="#000000" fill-opacity="1"><g transform="translate(222.446821, 268.896244)"><g/></g></g><g fill="#000000" fill-opacity="1"><g transform="translate(229.711837, 268.896244)"><g><path d="M 20.40625 0 C 22.238281 0 23.800781 -0.644531 25.09375 -1.9375 C 26.382812 -3.226562 27.03125 -4.789062 27.03125 -6.625 L 27.03125 -20.859375 L 23.71875 -20.859375 L 23.71875 -6.625 C 23.71875 -5.707031 23.390625 -4.925781 22.734375 -4.28125 C 22.085938 -3.632812 21.3125 -3.3125 20.40625 -3.3125 L 8.8125 -3.3125 C 7.894531 -3.3125 7.113281 -3.632812 6.46875 -4.28125 C 5.820312 -4.925781 5.5 -5.707031 5.5 -6.625 L 5.5 -20.859375 L 2.1875 -20.859375 L 2.1875 -6.625 C 2.1875 -4.789062 2.832031 -3.226562 4.125 -1.9375 C 5.414062 -0.644531 6.976562 0 8.8125 0 Z M 20.40625 0 "/></g></g></g><g fill="#000000" fill-opacity="1"><g transform="translate(258.794916, 268.896244)"><g><path d="M 30.40625 0 L 26.390625 0 L 23.34375 -4.515625 L 7.5 -4.515625 L 4.4375 0 L 0.4375 0 L 14.546875 -20.859375 L 16.296875 -20.859375 Z M 21.09375 -7.84375 L 15.421875 -16.25 L 9.734375 -7.84375 Z M 21.09375 -7.84375 "/></g></g></g><g fill="#000000" fill-opacity="1"><g transform="translate(289.506002, 268.896244)"><g><path d="M 26.109375 0 L 2.90625 0 L 2.90625 -20.859375 L 26.109375 -20.859375 L 26.109375 -17.546875 L 6.21875 -17.546875 L 6.21875 -12.078125 L 23.75 -12.078125 L 23.75 -8.765625 L 6.21875 -8.765625 L 6.21875 -3.3125 L 26.109375 -3.3125 Z M 26.109375 0 "/></g></g></g></svg>